{
  "accessors": [
    {
      "bufferView": 2,
      "componentType": 5126,
      "count": 51818,
      "max": [
        92.51180267333984,
        531.6649780273438,
        -17.969900131225586
      ],
      "min": [
        -84.90630340576172,
        412.4599914550781,
        -281.3389892578125
      ],
      "type": "VEC3"
    },
    {
      "bufferView": 2,
      "byteOffset": 621816,
      "componentType": 5126,
      "count": 51818,
      "max": [
        0.9999043345451355,
        0.9999998807907104,
        0.9998700022697449
      ],
      "min": [
        -0.9999613761901855,
        -0.999993622303009,
        -0.9996782541275024
      ],
      "type": "VEC3"
    },
    {
      "bufferView": 1,
      "componentType": 5126,
      "count": 51818,
      "max": [
        0.9817789793014526,
        0.9999399781227112
      ],
      "min": [
        0.00012490199878811836,
        7.480380008928478e-05
      ],
      "type": "VEC2"
    },
    {
      "bufferView": 0,
      "componentType": 5125,
      "count": 302928,
      "type": "SCALAR"
    }
  ],
  "asset": {
    "extras": {
      "author": "sproutdemo (https://sketchfab.com/sproutdemo)",
      "license": "CC-BY-4.0 (http://creativecommons.org/licenses/by/4.0/)",
      "source": "https://sketchfab.com/3d-models/tortoise-4342335b75384cd6b4c62551f393c2ce",
      "title": "Tortoise"
    },
    "generator": "Sketchfab-12.68.0",
    "version": "2.0"
  },
  "bufferViews": [
    {
      "buffer": 0,
      "byteLength": 1211712,
      "name": "floatBufferViews",
      "target": 34963
    },
    {
      "buffer": 0,
      "byteLength": 414544,
      "byteOffset": 1211712,
      "byteStride": 8,
      "name": "floatBufferViews",
      "target": 34962
    },
    {
      "buffer": 0,
      "byteLength": 1243632,
      "byteOffset": 1626256,
      "byteStride": 12,
      "name": "floatBufferViews",
      "target": 34962
    }
  ],
  "buffers": [
    {
      "byteLength": 2869888,
      "uri": "scene.bin"
    }
  ],
  "extensionsUsed": [
    "KHR_materials_unlit"
  ],
  "images": [
    {
      "uri": "textures/material_0_baseColor.jpeg"
    }
  ],
  "materials": [
    {
      "doubleSided": true,
      "extensions": {
        "KHR_materials_unlit": {}
      },
      "name": "material_0",
      "pbrMetallicRoughness": {
        "baseColorTexture": {
          "index": 0
        },
        "metallicFactor": 0.0
      }
    }
  ],
  "meshes": [
    {
      "name": "Object_0",
      "primitives": [
        {
          "attributes": {
            "NORMAL": 1,
            "POSITION": 0,
            "TEXCOORD_0": 2
          },
          "indices": 3,
          "material": 0,
          "mode": 4
        }
      ]
    }
  ],
  "nodes": [
    {
      "children": [
        1
      ],
      "matrix": [
        0.0058915093541145325,
        0.0,
        0.0,
        0.0,
        0.0,
        -0.0058915093541145325,
        -1.3081778669464877e-18,
        0.0,
        0.0,
        1.3081778669464877e-18,
        -0.0058915093541145325,
        0.0,
        0.0,
        322.40802001953136,
        -621.7169799804686,
        1.0
      ],
      "name": "Sketchfab_model"
    },
    {
      "children": [
        2
      ],
      "name": "Tue_May_14_20_18_13_2019_GMT.obj.cleaner.materialmerger.gles"
    },
    {
      "mesh": 0,
      "name": "Object_2"
    }
  ],
  "samplers": [
    {
      "magFilter": 9729,
      "minFilter": 9987,
      "wrapS": 10497,
      "wrapT": 10497
    }
  ],
  "scene": 0,
  "scenes": [
    {
      "name": "Sketchfab_Scene",
      "nodes": [
        0
      ]
    }
  ],
  "textures": [
    {
      "sampler": 0,
      "source": 0
    }
  ]
}
