{
  "accessors": [
    {
      "bufferView": 2,
      "componentType": 5126,
      "count": 15189,
      "max": [
        36.84221649169922,
        140.57095336914063,
        149.23858642578125
      ],
      "min": [
        -39.599334716796875,
        -1.6726408004760742,
        -99.4715576171875
      ],
      "type": "VEC3"
    },
    {
      "bufferView": 2,
      "byteOffset": 182268,
      "componentType": 5126,
      "count": 15189,
      "max": [
        0.9999850392341614,
        0.9999046325683594,
        0.9999215602874756
      ],
      "min": [
        -0.9999660849571228,
        -0.9999969601631165,
        -0.9993206262588501
      ],
      "type": "VEC3"
    },
    {
      "bufferView": 1,
      "componentType": 5126,
      "count": 15189,
      "max": [
        0.9900000095367432,
        0.9900000095367432
      ],
      "min": [
        0.009999999776482582,
        0.12323500216007233
      ],
      "type": "VEC2"
    },
    {
      "bufferView": 0,
      "componentType": 5125,
      "count": 82374,
      "type": "SCALAR"
    }
  ],
  "asset": {
    "extras": {
      "author": "Stephengury (https://sketchfab.com/Stephengury)",
      "license": "CC-BY-4.0 (http://creativecommons.org/licenses/by/4.0/)",
      "source": "https://sketchfab.com/3d-models/pig-262daa11fc9d42ec8325988e1b3418fc",
      "title": "Pig"
    },
    "generator": "Sketchfab-15.30.0",
    "version": "2.0"
  },
  "bufferViews": [
    {
      "buffer": 0,
      "byteLength": 329496,
      "name": "floatBufferViews",
      "target": 34963
    },
    {
      "buffer": 0,
      "byteLength": 121512,
      "byteOffset": 329496,
      "byteStride": 8,
      "name": "floatBufferViews",
      "target": 34962
    },
    {
      "buffer": 0,
      "byteLength": 364536,
      "byteOffset": 451008,
      "byteStride": 12,
      "name": "floatBufferViews",
      "target": 34962
    }
  ],
  "buffers": [
    {
      "byteLength": 815544,
      "uri": "scene.bin"
    }
  ],
  "extensionsRequired": [
    "KHR_materials_pbrSpecularGlossiness"
  ],
  "extensionsUsed": [
    "KHR_materials_pbrSpecularGlossiness"
  ],
  "images": [
    {
      "uri": "textures/material_diffuse.jpeg"
    }
  ],
  "materials": [
    {
      "doubleSided": true,
      "extensions": {
        "KHR_materials_pbrSpecularGlossiness": {
          "diffuseFactor": [
            0.8122605363984674,
            0.8122605363984674,
            0.8122605363984674,
            1.0
          ],
          "diffuseTexture": {
            "index": 0
          },
          "glossinessFactor": 0.10702864035024488,
          "specularFactor": [
            0.11954022988505747,
            0.11954022988505747,
            0.11954022988505747
          ]
        }
      },
      "name": "material"
    }
  ],
  "meshes": [
    {
      "name": "pig_pig_0",
      "primitives": [
        {
          "attributes": {
            "NORMAL": 1,
            "POSITION": 0,
            "TEXCOORD_0": 2
          },
          "indices": 3,
          "material": 0,
          "mode": 4
        }
      ]
    }
  ],
  "nodes": [
    {
      "children": [
        1
      ],
      "matrix": [
        1.0,
        0.0,
        0.0,
        0.0,
        0.0,
        2.220446049250313e-16,
        -1.0,
        0.0,
        0.0,
        1.0,
        2.220446049250313e-16,
        0.0,
        0.0,
        0.0,
        0.0,
        1.0
      ],
      "name": "Sketchfab_model"
    },
    {
      "children": [
        2
      ],
      "matrix": [
        0.0010000000474974513,
        0.0,
        0.0,
        0.0,
        0.0,
        0.0,
        0.0010000000474974513,
        0.0,
        0.0,
        -0.0010000000474974513,
        0.0,
        0.0,
        0.0,
        0.0,
        0.0,
        1.0
      ],
      "name": "8b107562109a4f1a881722b1a61b0d9e.fbx"
    },
    {
      "children": [
        3,
        5
      ],
      "name": "RootNode"
    },
    {
      "children": [
        4
      ],
      "matrix": [
        0.3160628466312075,
        -2.9935180525049215e-08,
        0.39030529154274574,
        0.0,
        -1.3780602715895675e-07,
        0.5022289752959792,
        1.5011244155980484e-07,
        0.0,
        -0.39030529154272253,
        -2.0156421110731356e-07,
        0.31606284663117323,
        0.0,
        -0.8747339248657227,
        0.5484867095947266,
        5.32038688659668,
        1.0
      ],
      "name": "pig"
    },
    {
      "mesh": 0,
      "name": "pig_pig_0"
    },
    {
      "children": [
        6
      ],
      "matrix": [
        0.9993236921790051,
        2.2516175089955573e-18,
        -0.03677170447125197,
        0.0,
        -2.2516175089955573e-18,
        1.0,
        4.141191041099366e-20,
        0.0,
        0.03677170447125197,
        4.141191041098078e-20,
        0.9993236921790051,
        0.0,
        3.501919746398926,
        52.3231201171875,
        280.6383056640625,
        1.0
      ],
      "name": "Camera001"
    },
    {
      "name": "Object_6"
    }
  ],
  "samplers": [
    {
      "magFilter": 9729,
      "minFilter": 9987,
      "wrapS": 10497,
      "wrapT": 10497
    }
  ],
  "scene": 0,
  "scenes": [
    {
      "name": "Sketchfab_Scene",
      "nodes": [
        0
      ]
    }
  ],
  "textures": [
    {
      "sampler": 0,
      "source": 0
    }
  ]
}
