{
  "accessors": [
    {
      "bufferView": 2,
      "componentType": 5126,
      "count": 13960,
      "max": [
        4.882530212402344,
        22.76409912109375,
        0.60692298412323
      ],
      "min": [
        -3.558840036392212,
        17.443300247192383,
        -4.022669792175293
      ],
      "type": "VEC3"
    },
    {
      "bufferView": 2,
      "byteOffset": 167520,
      "componentType": 5126,
      "count": 13960,
      "max": [
        0.9997995495796204,
        0.9996046423912048,
        0.9996713995933533
      ],
      "min": [
        -0.9999819397926331,
        -0.9999303817749023,
        -0.9998936057090759
      ],
      "type": "VEC3"
    },
    {
      "bufferView": 3,
      "componentType": 5126,
      "count": 13960,
      "max": [
        0.9995466470718384,
        0.9999814629554749,
        0.9994463324546814,
        1.0
      ],
      "min": [
        -0.9998525977134705,
        -0.999761164188385,
        -0.999943196773529,
        -1.0
      ],
      "type": "VEC4"
    },
    {
      "bufferView": 1,
      "componentType": 5126,
      "count": 13960,
      "max": [
        0.999904990196228,
        0.9966380000114441
      ],
      "min": [
        0.00010800000018207356,
        4.5000000682193786e-05
      ],
      "type": "VEC2"
    },
    {
      "bufferView": 0,
      "componentType": 5125,
      "count": 73056,
      "type": "SCALAR"
    }
  ],
  "asset": {
    "extras": {
      "author": "Lassi Kaukonen (https://sketchfab.com/thesidekick)",
      "license": "CC-BY-4.0 (http://creativecommons.org/licenses/by/4.0/)",
      "source": "https://sketchfab.com/3d-models/rhinoceros-b2f0a16456f94396a95be267b05b6d28",
      "title": "Rhinoceros"
    },
    "generator": "Sketchfab-12.68.0",
    "version": "2.0"
  },
  "bufferViews": [
    {
      "buffer": 0,
      "byteLength": 292224,
      "name": "floatBufferViews",
      "target": 34963
    },
    {
      "buffer": 0,
      "byteLength": 111680,
      "byteOffset": 292224,
      "byteStride": 8,
      "name": "floatBufferViews",
      "target": 34962
    },
    {
      "buffer": 0,
      "byteLength": 335040,
      "byteOffset": 403904,
      "byteStride": 12,
      "name": "floatBufferViews",
      "target": 34962
    },
    {
      "buffer": 0,
      "byteLength": 223360,
      "byteOffset": 738944,
      "byteStride": 16,
      "name": "floatBufferViews",
      "target": 34962
    }
  ],
  "buffers": [
    {
      "byteLength": 962304,
      "uri": "scene.bin"
    }
  ],
  "images": [
    {
      "uri": "textures/sarvikuono_sculpt_retopo_baseColor.jpeg"
    },
    {
      "uri": "textures/sarvikuono_sculpt_retopo_metallicRoughness.png"
    },
    {
      "uri": "textures/sarvikuono_sculpt_retopo_normal.png"
    }
  ],
  "materials": [
    {
      "doubleSided": true,
      "emissiveFactor": [
        0.3806818182,
        0.3806818182,
        0.3806818182
      ],
      "emissiveTexture": {
        "index": 0
      },
      "name": "sarvikuono_sculpt_retopo",
      "normalTexture": {
        "index": 2,
        "scale": 0.4986742424
      },
      "occlusionTexture": {
        "index": 1
      },
      "pbrMetallicRoughness": {
        "baseColorFactor": [
          0.7228787971265388,
          0.7228787971265388,
          0.7228787971265388,
          1.0
        ],
        "baseColorTexture": {
          "index": 0
        },
        "metallicFactor": 0.0,
        "metallicRoughnessTexture": {
          "index": 1
        }
      }
    }
  ],
  "meshes": [
    {
      "name": "Object_0",
      "primitives": [
        {
          "attributes": {
            "NORMAL": 1,
            "POSITION": 0,
            "TANGENT": 2,
            "TEXCOORD_0": 3
          },
          "indices": 4,
          "material": 0,
          "mode": 4
        }
      ]
    }
  ],
  "nodes": [
    {
      "children": [
        1
      ],
      "matrix": [
        1.0,
        0.0,
        0.0,
        0.0,
        0.0,
        2.220446049250313e-16,
        -1.0,
        0.0,
        0.0,
        1.0,
        2.220446049250313e-16,
        0.0,
        0.0,
        0.0,
        0.0,
        1.0
      ],
      "name": "Sketchfab_model"
    },
    {
      "children": [
        2
      ],
      "name": "sarvikuono_sculpt_retopo.obj.cleaner.materialmerger.gles"
    },
    {
      "mesh": 0,
      "name": "Object_2"
    }
  ],
  "samplers": [
    {
      "magFilter": 9729,
      "minFilter": 9987,
      "wrapS": 10497,
      "wrapT": 10497
    }
  ],
  "scene": 0,
  "scenes": [
    {
      "name": "Sketchfab_Scene",
      "nodes": [
        0
      ]
    }
  ],
  "textures": [
    {
      "sampler": 0,
      "source": 0
    },
    {
      "sampler": 0,
      "source": 1
    },
    {
      "sampler": 0,
      "source": 2
    }
  ]
}
