{
  "accessors": [
    {
      "bufferView": 2,
      "componentType": 5126,
      "count": 20161,
      "max": [
        1.1610794067382813,
        3.5465469360351563,
        3.332101821899414
      ],
      "min": [
        -1.1964263916015625,
        -0.07011890411376953,
        -3.3949806690216064
      ],
      "type": "VEC3"
    },
    {
      "bufferView": 2,
      "byteOffset": 241932,
      "componentType": 5126,
      "count": 20161,
      "max": [
        0.9999791383743286,
        0.9997871518135071,
        0.9996892213821411
      ],
      "min": [
        -0.9999483823776245,
        -0.9999811053276062,
        -0.9996417164802551
      ],
      "type": "VEC3"
    },
    {
      "bufferView": 1,
      "componentType": 5126,
      "count": 20161,
      "max": [
        0.9894985556602478,
        0.9956214427947998
      ],
      "min": [
        0.00390625,
        0.00390625
      ],
      "type": "VEC2"
    },
    {
      "bufferView": 0,
      "componentType": 5125,
      "count": 107448,
      "type": "SCALAR"
    }
  ],
  "asset": {
    "extras": {
      "author": "Stephengury (https://sketchfab.com/Stephengury)",
      "license": "CC-BY-4.0 (http://creativecommons.org/licenses/by/4.0/)",
      "source": "https://sketchfab.com/3d-models/hippopotamus-amphibius-0977b07597ea46f4a2f6a7cfacac523a",
      "title": "Hippopotamus amphibius"
    },
    "generator": "Sketchfab-15.29.0",
    "version": "2.0"
  },
  "bufferViews": [
    {
      "buffer": 0,
      "byteLength": 429792,
      "name": "floatBufferViews",
      "target": 34963
    },
    {
      "buffer": 0,
      "byteLength": 161288,
      "byteOffset": 429792,
      "byteStride": 8,
      "name": "floatBufferViews",
      "target": 34962
    },
    {
      "buffer": 0,
      "byteLength": 483864,
      "byteOffset": 591080,
      "byteStride": 12,
      "name": "floatBufferViews",
      "target": 34962
    }
  ],
  "buffers": [
    {
      "byteLength": 1074944,
      "uri": "scene.bin"
    }
  ],
  "extensionsRequired": [
    "KHR_materials_pbrSpecularGlossiness"
  ],
  "extensionsUsed": [
    "KHR_materials_pbrSpecularGlossiness"
  ],
  "images": [
    {
      "uri": "textures/Hippopotamus_with_mouth_closed1_diffuse.jpeg"
    }
  ],
  "materials": [
    {
      "doubleSided": true,
      "extensions": {
        "KHR_materials_pbrSpecularGlossiness": {
          "diffuseFactor": [
            0.8122605363984674,
            0.8122605363984674,
            0.8122605363984674,
            1.0
          ],
          "diffuseTexture": {
            "index": 0
          },
          "glossinessFactor": 1.0,
          "specularFactor": [
            0.0,
            0.0,
            0.0
          ]
        }
      },
      "name": "Hippopotamus_with_mouth_closed1"
    }
  ],
  "meshes": [
    {
      "name": "Hippopotamus_Hippopotamus_with_mouth_closed1_0",
      "primitives": [
        {
          "attributes": {
            "NORMAL": 1,
            "POSITION": 0,
            "TEXCOORD_0": 2
          },
          "indices": 3,
          "material": 0,
          "mode": 4
        }
      ]
    }
  ],
  "nodes": [
    {
      "children": [
        1
      ],
      "matrix": [
        1.0,
        0.0,
        0.0,
        0.0,
        0.0,
        2.220446049250313e-16,
        -1.0,
        0.0,
        0.0,
        1.0,
        2.220446049250313e-16,
        0.0,
        0.0,
        0.0,
        0.0,
        1.0
      ],
      "name": "Sketchfab_model"
    },
    {
      "children": [
        2
      ],
      "matrix": [
        1.0,
        0.0,
        0.0,
        0.0,
        0.0,
        0.0,
        1.0,
        0.0,
        0.0,
        -1.0,
        0.0,
        0.0,
        0.0,
        0.0,
        0.0,
        1.0
      ],
      "name": "Hippopotamus.FBX"
    },
    {
      "children": [
        3
      ],
      "name": "RootNode"
    },
    {
      "children": [
        4
      ],
      "matrix": [
        0.49706101417541504,
        0.0,
        0.0,
        0.0,
        0.0,
        0.49706101417540843,
        8.098152044641507e-08,
        0.0,
        0.0,
        -8.098152044641507e-08,
        0.49706101417540843,
        0.0,
        0.008463382720947266,
        0.0,
        -0.0003887377679347992,
        1.0
      ],
      "name": "Hippopotamus"
    },
    {
      "mesh": 0,
      "name": "Hippopotamus_Hippopotamus_with_mouth_closed1_0"
    }
  ],
  "samplers": [
    {
      "magFilter": 9729,
      "minFilter": 9987,
      "wrapS": 10497,
      "wrapT": 10497
    }
  ],
  "scene": 0,
  "scenes": [
    {
      "name": "Sketchfab_Scene",
      "nodes": [
        0
      ]
    }
  ],
  "textures": [
    {
      "sampler": 0,
      "source": 0
    }
  ]
}
