{
  "accessors": [
    {
      "bufferView": 2,
      "componentType": 5126,
      "count": 65532,
      "max": [
        98.8992691040039,
        20.575014114379883,
        63.41456985473633
      ],
      "min": [
        -62.432884216308594,
        -38.0,
        1.7806670665740967
      ],
      "type": "VEC3"
    },
    {
      "bufferView": 2,
      "byteOffset": 786384,
      "componentType": 5126,
      "count": 65532,
      "max": [
        0.9948737025260925,
        0.9999386072158813,
        0.9999693632125854
      ],
      "min": [
        -0.9999625086784363,
        -0.9999881386756897,
        -0.9999990463256836
      ],
      "type": "VEC3"
    },
    {
      "bufferView": 1,
      "componentType": 5126,
      "count": 65532,
      "max": [
        0.9767990112304688,
        0.7740259766578674
      ],
      "min": [
        0.015065000392496586,
        0.00699200015515089
      ],
      "type": "VEC2"
    },
    {
      "bufferView": 0,
      "componentType": 5125,
      "count": 330210,
      "type": "SCALAR"
    },
    {
      "bufferView": 2,
      "byteOffset": 1572768,
      "componentType": 5126,
      "count": 65532,
      "max": [
        94.87580871582031,
        18.673267364501953,
        67.38496398925781
      ],
      "min": [
        -62.03229904174805,
        -30.98174285888672,
        0.7174654006958008
      ],
      "type": "VEC3"
    },
    {
      "bufferView": 2,
      "byteOffset": 2359152,
      "componentType": 5126,
      "count": 65532,
      "max": [
        0.9985219240188599,
        0.9999829530715942,
        0.9999850392341614
      ],
      "min": [
        -0.9998313188552856,
        -0.9999960064888,
        -0.9999925494194031
      ],
      "type": "VEC3"
    },
    {
      "bufferView": 1,
      "byteOffset": 524256,
      "componentType": 5126,
      "count": 65532,
      "max": [
        0.916251003742218,
        0.8041560053825378
      ],
      "min": [
        0.03013000078499317,
        0.02705400064587593
      ],
      "type": "VEC2"
    },
    {
      "bufferView": 0,
      "byteOffset": 1320840,
      "componentType": 5125,
      "count": 336639,
      "type": "SCALAR"
    },
    {
      "bufferView": 2,
      "byteOffset": 3145536,
      "componentType": 5126,
      "count": 65532,
      "max": [
        99.24568939208984,
        20.111373901367188,
        77.82220458984375
      ],
      "min": [
        -42.823856353759766,
        -30.988677978515625,
        2.531301498413086
      ],
      "type": "VEC3"
    },
    {
      "bufferView": 2,
      "byteOffset": 3931920,
      "componentType": 5126,
      "count": 65532,
      "max": [
        0.9998338222503662,
        0.9999949336051941,
        0.9999931454658508
      ],
      "min": [
        -0.9999451637268066,
        -0.9999232292175293,
        -0.9999500513076782
      ],
      "type": "VEC3"
    },
    {
      "bufferView": 1,
      "byteOffset": 1048512,
      "componentType": 5126,
      "count": 65532,
      "max": [
        0.839326024055481,
        0.6671350002288818
      ],
      "min": [
        0.4529170095920563,
        0.12554800510406494
      ],
      "type": "VEC2"
    },
    {
      "bufferView": 0,
      "byteOffset": 2667396,
      "componentType": 5125,
      "count": 321216,
      "type": "SCALAR"
    },
    {
      "bufferView": 2,
      "byteOffset": 4718304,
      "componentType": 5126,
      "count": 65532,
      "max": [
        91.294189453125,
        19.482419967651367,
        68.55679321289063
      ],
      "min": [
        -60.95731735229492,
        -37.2895622253418,
        2.4340436458587646
      ],
      "type": "VEC3"
    },
    {
      "bufferView": 2,
      "byteOffset": 5504688,
      "componentType": 5126,
      "count": 65532,
      "max": [
        0.9998351335525513,
        0.9999963045120239,
        0.9999994039535522
      ],
      "min": [
        -0.9999023675918579,
        -0.9999799728393555,
        -0.9999226927757263
      ],
      "type": "VEC3"
    },
    {
      "bufferView": 1,
      "byteOffset": 1572768,
      "componentType": 5126,
      "count": 65532,
      "max": [
        0.957194983959198,
        0.9849349856376648
      ],
      "min": [
        0.015065000392496586,
        0.00938900001347065
      ],
      "type": "VEC2"
    },
    {
      "bufferView": 0,
      "byteOffset": 3952260,
      "componentType": 5125,
      "count": 328338,
      "type": "SCALAR"
    },
    {
      "bufferView": 2,
      "byteOffset": 6291072,
      "componentType": 5126,
      "count": 65532,
      "max": [
        99.08521270751953,
        20.124696731567383,
        77.79695892333984
      ],
      "min": [
        -63.6837043762207,
        -36.34040069580078,
        1.030808448791504
      ],
      "type": "VEC3"
    },
    {
      "bufferView": 2,
      "byteOffset": 7077456,
      "componentType": 5126,
      "count": 65532,
      "max": [
        0.9995732307434082,
        0.999929666519165,
        0.9999850392341614
      ],
      "min": [
        -0.999989926815033,
        -0.9999822974205017,
        -0.9998329281806946
      ],
      "type": "VEC3"
    },
    {
      "bufferView": 1,
      "byteOffset": 2097024,
      "componentType": 5126,
      "count": 65532,
      "max": [
        0.9677810072898865,
        0.959617018699646
      ],
      "min": [
        0.03137100115418434,
        0.01457700040191412
      ],
      "type": "VEC2"
    },
    {
      "bufferView": 0,
      "byteOffset": 5265612,
      "componentType": 5125,
      "count": 309081,
      "type": "SCALAR"
    },
    {
      "bufferView": 2,
      "byteOffset": 7863840,
      "componentType": 5126,
      "count": 65532,
      "max": [
        99.11585998535156,
        20.56281280517578,
        77.13863372802734
      ],
      "min": [
        -64.28609466552734,
        -37.82676696777344,
        1.236619234085083
      ],
      "type": "VEC3"
    },
    {
      "bufferView": 2,
      "byteOffset": 8650224,
      "componentType": 5126,
      "count": 65532,
      "max": [
        0.9997598528862,
        0.9999829530715942,
        0.9999881982803345
      ],
      "min": [
        -0.9999831318855286,
        -0.9999960064888,
        -0.9999717473983765
      ],
      "type": "VEC3"
    },
    {
      "bufferView": 1,
      "byteOffset": 2621280,
      "componentType": 5126,
      "count": 65532,
      "max": [
        0.9722179770469666,
        0.9798020124435425
      ],
      "min": [
        0.015065000392496586,
        0.005797999911010265
      ],
      "type": "VEC2"
    },
    {
      "bufferView": 0,
      "byteOffset": 6501936,
      "componentType": 5125,
      "count": 274374,
      "type": "SCALAR"
    },
    {
      "bufferView": 2,
      "byteOffset": 9436608,
      "componentType": 5126,
      "count": 65533,
      "max": [
        98.7185287475586,
        20.572731018066406,
        77.82220458984375
      ],
      "min": [
        -62.36962890625,
        -38.0,
        1.7948451042175293
      ],
      "type": "VEC3"
    },
    {
      "bufferView": 2,
      "byteOffset": 10223004,
      "componentType": 5126,
      "count": 65533,
      "max": [
        0.9998351335525513,
        0.9999921917915344,
        0.9999765157699585
      ],
      "min": [
        -0.9994736313819885,
        -0.9999799728393555,
        -0.9999200701713562
      ],
      "type": "VEC3"
    },
    {
      "bufferView": 1,
      "byteOffset": 3145536,
      "componentType": 5126,
      "count": 65533,
      "max": [
        0.9767810106277466,
        0.9837009906768799
      ],
      "min": [
        0.01560600008815527,
        0.0067170001566410065
      ],
      "type": "VEC2"
    },
    {
      "bufferView": 0,
      "byteOffset": 7599432,
      "componentType": 5125,
      "count": 210684,
      "type": "SCALAR"
    },
    {
      "bufferView": 2,
      "byteOffset": 11009400,
      "componentType": 5126,
      "count": 22272,
      "max": [
        99.11742401123047,
        20.49262046813965,
        77.59503936767578
      ],
      "min": [
        -64.22489166259766,
        -36.243011474609375,
        0.7267428636550903
      ],
      "type": "VEC3"
    },
    {
      "bufferView": 2,
      "byteOffset": 11276664,
      "componentType": 5126,
      "count": 22272,
      "max": [
        0.9985219240188599,
        0.9999383091926575,
        0.9999611973762512
      ],
      "min": [
        -0.9998355507850647,
        -0.9999129176139832,
        -0.9999990463256836
      ],
      "type": "VEC3"
    },
    {
      "bufferView": 1,
      "byteOffset": 3669800,
      "componentType": 5126,
      "count": 22272,
      "max": [
        0.9172930121421814,
        0.9818999767303467
      ],
      "min": [
        0.022360000759363174,
        0.01457700040191412
      ],
      "type": "VEC2"
    },
    {
      "bufferView": 0,
      "byteOffset": 8442168,
      "componentType": 5125,
      "count": 43206,
      "type": "SCALAR"
    }
  ],
  "asset": {
    "extras": {
      "author": "RISD Nature Lab (https://sketchfab.com/RISDNaturelab)",
      "license": "CC-BY-4.0 (http://creativecommons.org/licenses/by/4.0/)",
      "source": "https://sketchfab.com/3d-models/jacksons-chameleon-695e5d1b11794acca685c1e86a29d35f",
      "title": "Jackson's Chameleon"
    },
    "generator": "Sketchfab-12.65.0",
    "version": "2.0"
  },
  "bufferViews": [
    {
      "buffer": 0,
      "byteLength": 8614992,
      "name": "floatBufferViews",
      "target": 34963
    },
    {
      "buffer": 0,
      "byteLength": 3847976,
      "byteOffset": 8614992,
      "byteStride": 8,
      "name": "floatBufferViews",
      "target": 34962
    },
    {
      "buffer": 0,
      "byteLength": 11543928,
      "byteOffset": 12462968,
      "byteStride": 12,
      "name": "floatBufferViews",
      "target": 34962
    }
  ],
  "buffers": [
    {
      "byteLength": 24006896,
      "uri": "scene.bin"
    }
  ],
  "images": [
    {
      "uri": "textures/material_0_baseColor.jpeg"
    }
  ],
  "materials": [
    {
      "doubleSided": true,
      "name": "material_0",
      "pbrMetallicRoughness": {
        "baseColorTexture": {
          "index": 0
        },
        "metallicFactor": 0.0,
        "roughnessFactor": 0.7160588485566323
      }
    }
  ],
  "meshes": [
    {
      "name": "Object_0",
      "primitives": [
        {
          "attributes": {
            "NORMAL": 1,
            "POSITION": 0,
            "TEXCOORD_0": 2
          },
          "indices": 3,
          "material": 0,
          "mode": 4
        }
      ]
    },
    {
      "name": "Object_1",
      "primitives": [
        {
          "attributes": {
            "NORMAL": 5,
            "POSITION": 4,
            "TEXCOORD_0": 6
          },
          "indices": 7,
          "material": 0,
          "mode": 4
        }
      ]
    },
    {
      "name": "Object_2",
      "primitives": [
        {
          "attributes": {
            "NORMAL": 9,
            "POSITION": 8,
            "TEXCOORD_0": 10
          },
          "indices": 11,
          "material": 0,
          "mode": 4
        }
      ]
    },
    {
      "name": "Object_3",
      "primitives": [
        {
          "attributes": {
            "NORMAL": 13,
            "POSITION": 12,
            "TEXCOORD_0": 14
          },
          "indices": 15,
          "material": 0,
          "mode": 4
        }
      ]
    },
    {
      "name": "Object_4",
      "primitives": [
        {
          "attributes": {
            "NORMAL": 17,
            "POSITION": 16,
            "TEXCOORD_0": 18
          },
          "indices": 19,
          "material": 0,
          "mode": 4
        }
      ]
    },
    {
      "name": "Object_5",
      "primitives": [
        {
          "attributes": {
            "NORMAL": 21,
            "POSITION": 20,
            "TEXCOORD_0": 22
          },
          "indices": 23,
          "material": 0,
          "mode": 4
        }
      ]
    },
    {
      "name": "Object_6",
      "primitives": [
        {
          "attributes": {
            "NORMAL": 25,
            "POSITION": 24,
            "TEXCOORD_0": 26
          },
          "indices": 27,
          "material": 0,
          "mode": 4
        }
      ]
    },
    {
      "name": "Object_7",
      "primitives": [
        {
          "attributes": {
            "NORMAL": 29,
            "POSITION": 28,
            "TEXCOORD_0": 30
          },
          "indices": 31,
          "material": 0,
          "mode": 4
        }
      ]
    }
  ],
  "nodes": [
    {
      "children": [
        1
      ],
      "matrix": [
        1.0,
        0.0,
        0.0,
        0.0,
        0.0,
        2.220446049250313e-16,
        -1.0,
        0.0,
        0.0,
        1.0,
        2.220446049250313e-16,
        0.0,
        0.0,
        0.0,
        0.0,
        1.0
      ],
      "name": "Sketchfab_model"
    },
    {
      "children": [
        2,
        3,
        4,
        5,
        6,
        7,
        8,
        9
      ],
      "name": "iquana.obj.cleaner.materialmerger.gles"
    },
    {
      "mesh": 0,
      "name": "Object_2"
    },
    {
      "mesh": 1,
      "name": "Object_3"
    },
    {
      "mesh": 2,
      "name": "Object_4"
    },
    {
      "mesh": 3,
      "name": "Object_5"
    },
    {
      "mesh": 4,
      "name": "Object_6"
    },
    {
      "mesh": 5,
      "name": "Object_7"
    },
    {
      "mesh": 6,
      "name": "Object_8"
    },
    {
      "mesh": 7,
      "name": "Object_9"
    }
  ],
  "samplers": [
    {
      "magFilter": 9729,
      "minFilter": 9987,
      "wrapS": 10497,
      "wrapT": 10497
    }
  ],
  "scene": 0,
  "scenes": [
    {
      "name": "Sketchfab_Scene",
      "nodes": [
        0
      ]
    }
  ],
  "textures": [
    {
      "sampler": 0,
      "source": 0
    }
  ]
}
